<svg xmlns="http://www.w3.org/2000/svg" width="1023" height="1024" fill="none" viewBox="0 0 1023 1024"><defs><filter id="filter_2" width="527" height="293" x="-525" y="-291" color-interpolation-filters="sRGB"><feFlood flood-opacity="0" result="BackgroundImageFix_1"/><feColorMatrix in="SourceAlpha" values="0 0 0 0 0 0 0 0 0 0 0 0 0 0 0 0 0 0 1 0"/><feOffset dy="4"/><feGaussianBlur stdDeviation="2"/><feColorMatrix values="0 0 0 0 0 0 0 0 0 0 0 0 0 0 0 0 0 0 0.251 0"/><feBlend in2="BackgroundImageFix_1" result="Shadow_2"/><feBlend in="SourceGraphic" in2="Shadow_2" result="Shape_3"/></filter><filter id="filter_3" width="527" height="293" x="-525" y="-291" color-interpolation-filters="sRGB"><feFlood flood-opacity="0" result="BackgroundImageFix_1"/><feColorMatrix in="SourceAlpha" values="0 0 0 0 0 0 0 0 0 0 0 0 0 0 0 0 0 0 1 0"/><feOffset dy="4"/><feGaussianBlur stdDeviation="2"/><feColorMatrix values="0 0 0 0 0 0 0 0 0 0 0 0 0 0 0 0 0 0 0.251 0"/><feBlend in2="BackgroundImageFix_1" result="Shadow_2"/><feBlend in="SourceGraphic" in2="Shadow_2" result="Shape_3"/></filter><linearGradient id="gradient_1" x1="512" x2="512" y1="0" y2="1024" gradientUnits="userSpaceOnUse"><stop offset="0" stop-color="#cfdffa"/><stop offset="1" stop-color="#f5ebef"/><stop offset="1" stop-color="#d4fcf4"/></linearGradient></defs><g id="SingleElement"><path fill="url(#gradient_1)" d="M102 0h819c56 0 102 46 102 102v820c0 56-46 102-102 102H102C46 1024 0 978 0 922V102C0 46 46 0 102 0"/><path fill="#7a746c" d="m559 499-111-79c-12-8-29-5-37 7l-1 1c-9 12-6 29 6 37l111 79c12 8 29 6 37-6l1-2c9-12 6-28-6-37"/><path fill="#e5594f" d="m552 468-1-1c-12-8-29-5-37 7L388 651c-9 12-6 29 6 37l2 1c12 9 28 6 37-6l126-178c8-12 5-28-7-37"/><path fill="#ebc342" d="M466 30a205 205 0 0 1-53 136 203 203 0 0 1-275 23l-4-3a234 234 0 0 1-43-50A193 193 0 0 1 61 30c0-40-61-40-61 0 1 119 83 225 199 255A266 266 0 0 0 527 30c0-40-61-40-61 0" filter="url(#filter_2)" transform="translate(251 494)"/><path fill="#c45e71" d="M61 263a205 205 0 0 1 53-136 203 203 0 0 1 275-23l4 3a236 236 0 0 1 43 50 193 193 0 0 1 30 106c0 40 61 40 61 0-1-119-83-225-199-255A266 266 0 0 0 0 263c0 40 61 40 61 0" filter="url(#filter_3)" transform="translate(251 247)"/></g></svg>